<?xml version="1.0" encoding="utf-8" standalone="no"?>
<!DOCTYPE svg PUBLIC "-//W3C//DTD SVG 1.1//EN" "http://www.w3.org/Graphics/SVG/1.1/DTD/svg11-flat-20030114.dtd">
<!-- Created by SVGDeveloper 1.0 -->
<svg width="640" height="480" version="1.1" xmlns="http://www.w3.org/2000/svg" xmlns:xlink="http://www.w3.org/1999/xlink">
<path d="M124 122L162 192L236 131L236 100C236 100 136 55 136 53L120 87L124 122ZM258 66L264 157L366 160L464 138C464 138 467 91 467 89C467 87 439 36 439 36C439 36 378 23 376 23C374 23 287 23 287 23L258 66ZM245 226L238 285L417 286L511 248L363 234L339 268L304 249L294 256C294 256 291 275 284 269L245 226ZM71 222L179 225L172 288L96 307L45 252L30 295L18 238L23 200L58 152L145 186L115 208L86 197C86 197 71 225 71 222ZM506 184" fill="#999999" stroke="none" stroke-opacity="0" fill-rule="evenodd" opacity="0.43" xmlns="http://www.w3.org/2000/svg" />
<path d="M479 182L399 212L497 226L544 200L514 124C514 124 455 152 457 152C459 152 441 180 441 180L479 182Z" fill="#FF0000" stroke="none" stroke-opacity="0" opacity="0.69" />
<path d="M146 327L153 397L314 406L343 374L366 325L192 302L164 293C164 293 147 330 146 327ZM419 338C419 338 411 403 413 405C415 407 549 399 549 397C549 395 562 285 562 285C562 285 468 294 468 297C468 300 414 306 414 306L369 297C369 297 415 335 419 338Z" fill="#0000FF" stroke="none" stroke-opacity="0" opacity="0.27" />
</svg>