<?xml version="1.0" encoding="utf-8" standalone="no"?>
<!DOCTYPE svg PUBLIC "-//W3C//DTD SVG 1.1//EN" "http://www.w3.org/Graphics/SVG/1.1/DTD/svg11-flat-20030114.dtd">
<!-- Created by SVGDeveloper 1.0 -->
<svg width="1376" height="768" version="1.1" xmlns="http://www.w3.org/2000/svg" xmlns:xlink="http://www.w3.org/1999/xlink">

<path d="M326 382L404 438L456 439L475 424L524 420L596 436L656 475L665 462L644 394L500 380L496 348L472 346L470 332L421 336C421 336 327 382 326 382Z" fill="#00FF00" stroke="none" stroke-opacity="0" opacity="0.5" transform="matrix(0.9999999,0,0,0.9999999,-81.49982,63.83278)" xmlns="http://www.w3.org/2000/svg" />
<path d="M89 120L87 149L105 176L105 231L116 270L151 291L152 331L182 375L179 404L277 550L339 574L392 562L539 594L605 586L652 619L731 652L826 649L886 602L815 505L761 468L677 445L551 320L459 295L407 295L385 314L335 310L266 270L232 228L200 206L149 88L129 84C129 84 86 122 89 120Z" fill="#FF0000" stroke="none" stroke-opacity="0" opacity="0.50" transform="matrix(1,0,0,1,-11,196)" xmlns="http://www.w3.org/2000/svg" />
<path d="M438 347L456 393L475 438L534 490L625 445L677 441L678 452L704 456L690 350L659 265L609 246L571 261L515 255L497 276L508 321L448 352C448 352 439 349 438 347Z" fill="#0000FF" stroke="none" stroke-opacity="0" opacity="0.5" transform="matrix(0.9999999,0,0,0.9999999,-285.3343,-52.49977)" xmlns="http://www.w3.org/2000/svg" />
<path d="M58 88L48 101L33 166L56 195L110 212L134 198L188 206L217 190L275 211L314 349L318 434L459 448L484 508L475 527L562 621L649 648L655 599L636 540L628 342L638 328L664 339L695 292L698 243L673 204L708 200L718 86C718 86 56 86 58 88Z" fill="#FF00FF" stroke="none" stroke-opacity="0" opacity="0.5" transform="matrix(0.9999999,0,0,0.9999999,109.8333,8.666469)" xmlns="http://www.w3.org/2000/svg" />
<path d="M156 289L146 302L157 504L175 551L170 618L222 649L297 746L370 699L406 659L424 598L492 510L514 421L545 370L582 350L686 368L777 419L926 454L1105 444L1121 370L1075 321L1065 280L985 250L934 179L879 156L866 125L805 130L650 180L511 99C511 99 482 76 485 76C487 76 391 81 391 81L369 57L281 22L242 40L227 164L191 164L219 200L214 260L184 302C184 302 155 288 156 289Z" fill="#FFFF00" stroke="none" stroke-opacity="0" opacity="0.5" transform="matrix(0.9999999,0,0,0.9999999,599.166,53.33319)" xmlns="http://www.w3.org/2000/svg" />


</svg>